<svg width="30" height="28" viewBox="0 0 32 30" fill="none" xmlns="http://www.w3.org/2000/svg">
    <path fill-rule="evenodd" clip-rule="evenodd" d="M19.4987 27.3156C21.1693 27.3156 22.6027 27.2331 23.8013 26.9844C25.0147 26.7306 26.0653 26.2906 26.8867 25.5219C27.7067 24.7519 28.176 23.7669 28.4467 22.6294C28.7133 21.5056 28.8 20.1619 28.8 18.5956V14.8156C28.8 14.1526 28.519 13.5167 28.0189 13.0478C27.5189 12.579 26.8406 12.3156 26.1333 12.3156H15.4667C14.7594 12.3156 14.0811 12.579 13.581 13.0478C13.0809 13.5167 12.8 14.1526 12.8 14.8156V24.8156C12.8 25.4787 13.0809 26.1145 13.581 26.5834C14.0811 27.0522 14.7594 27.3156 15.4667 27.3156H19.4987ZM2.13333 18.5956C2.13333 20.1619 2.22133 21.5056 2.488 22.6294C2.75733 23.7669 3.22666 24.7519 4.048 25.5219C4.868 26.2906 5.91866 26.7306 7.132 26.9844C7.248 27.0081 7.36533 27.0306 7.48266 27.0519C8.928 27.3144 10.1333 26.1669 10.1333 24.7856V14.8156C10.1333 14.1526 9.85238 13.5167 9.35228 13.0478C8.85219 12.579 8.17391 12.3156 7.46666 12.3156H4.8C4.09275 12.3156 3.41448 12.579 2.91438 13.0478C2.41428 13.5167 2.13333 14.1526 2.13333 14.8156V18.5956ZM11.4347 2.31561C9.764 2.31561 8.33066 2.39811 7.132 2.64811C5.91866 2.90061 4.868 3.34061 4.04666 4.11061C3.22666 4.87936 2.75733 5.86436 2.48666 7.00186C2.46533 7.09561 2.444 7.18936 2.42533 7.28311C2.13866 8.65686 3.38533 9.81561 4.87866 9.81561H26.1013C27.5747 9.81561 28.7987 8.68561 28.5187 7.33061C28.4958 7.22072 28.4714 7.11113 28.4453 7.00186C28.176 5.86436 27.7067 4.87936 26.8853 4.10936C26.0653 3.34061 25.0147 2.90061 23.8013 2.64686C22.6027 2.39686 21.1693 2.31561 19.4987 2.31561H11.4347Z" fill="white"/>
</svg>