<svg xmlns="http://www.w3.org/2000/svg" xmlns:xlink="http://www.w3.org/1999/xlink" width="1080" zoomAndPan="magnify" viewBox="0 0 810 809.999993" height="1080" preserveAspectRatio="xMidYMid meet" version="1.0"><defs><g/><clipPath id="91684a86a4"><path d="M 53.984375 214.574219 L 755.984375 214.574219 L 755.984375 595.574219 L 53.984375 595.574219 Z M 53.984375 214.574219 " clip-rule="nonzero"/></clipPath></defs><path fill="#04061f" d="M 454.042969 304.769531 C 454.042969 320.179688 466.535156 332.667969 481.9375 332.667969 C 497.347656 332.667969 509.835938 320.179688 509.835938 304.769531 C 509.835938 289.363281 497.347656 276.875 481.9375 276.875 C 466.535156 276.875 454.042969 289.363281 454.042969 304.769531 " fill-opacity="1" fill-rule="nonzero"/><g clip-path="url(#91684a86a4)"><path fill="#04061f" d="M 663.816406 503.035156 L 652.117188 514.761719 C 653.6875 518.484375 654.5625 522.582031 654.5625 526.878906 C 654.5625 544.105469 640.597656 558.070312 623.363281 558.070312 C 606.132812 558.070312 592.167969 544.105469 592.167969 526.878906 C 592.167969 509.644531 606.132812 495.679688 623.363281 495.679688 C 629.234375 495.679688 634.710938 497.332031 639.394531 500.152344 L 655.800781 483.726562 L 731.371094 483.726562 L 731.371094 483.722656 L 751.671875 483.722656 C 754.085938 474.160156 755.570312 464.21875 756.023438 454.015625 L 620.042969 454.015625 L 529.042969 545.195312 L 447.578125 545.195312 C 443.191406 564.625 425.832031 579.128906 405.074219 579.128906 C 381.011719 579.128906 361.5 559.613281 361.5 535.546875 C 361.5 511.484375 381.011719 491.972656 405.074219 491.972656 C 425.824219 491.972656 443.175781 506.464844 447.574219 525.886719 L 521.03125 525.886719 L 612.035156 434.703125 L 755.632812 434.703125 C 754.769531 424.464844 752.855469 414.53125 750.011719 404.996094 L 598.378906 404.996094 L 549.453125 454.015625 L 246.503906 454.015625 C 242.117188 473.449219 224.757812 487.949219 204.003906 487.949219 C 179.933594 487.949219 160.421875 468.4375 160.421875 444.371094 C 160.421875 420.304688 179.933594 400.792969 204.003906 400.792969 C 224.746094 400.792969 242.105469 415.285156 246.503906 434.703125 L 541.441406 434.703125 L 571.089844 404.996094 L 471.980469 404.996094 L 423.054688 355.976562 L 377.179688 355.976562 C 372.789062 375.394531 355.429688 389.890625 334.683594 389.890625 C 310.613281 389.890625 291.105469 370.375 291.105469 346.308594 C 291.105469 322.242188 310.613281 302.734375 334.683594 302.734375 C 355.425781 302.734375 372.785156 317.226562 377.179688 336.648438 L 377.179688 336.664062 L 431.0625 336.664062 L 479.992188 385.683594 L 742.738281 385.683594 C 728.484375 354.660156 703.8125 329.421875 673.207031 314.441406 L 524.441406 314.441406 C 520.042969 333.855469 502.6875 348.351562 481.941406 348.351562 C 457.875 348.351562 438.363281 328.839844 438.363281 304.773438 C 438.363281 280.707031 457.875 261.195312 481.941406 261.195312 C 502.695312 261.195312 520.058594 275.699219 524.445312 295.125 L 569.875 295.125 C 535.410156 246.484375 478.683594 214.734375 414.535156 214.734375 C 349.195312 214.734375 291.5625 247.671875 257.300781 297.839844 C 253.96875 297.53125 250.597656 297.363281 247.183594 297.363281 C 187.742188 297.363281 139.550781 345.554688 139.550781 404.996094 C 139.550781 411.527344 140.136719 417.921875 141.25 424.128906 C 140.6875 424.117188 140.121094 424.109375 139.550781 424.109375 C 92.292969 424.109375 53.976562 462.421875 53.976562 509.683594 C 53.976562 556.945312 92.292969 595.261719 139.550781 595.261719 C 163.824219 595.261719 185.734375 585.15625 201.308594 568.921875 C 219.808594 585.308594 244.136719 595.261719 270.792969 595.261719 C 293.304688 595.261719 314.152344 588.167969 331.234375 576.097656 C 356.394531 588.367188 384.660156 595.261719 414.535156 595.261719 C 452.742188 595.261719 488.308594 583.992188 518.117188 564.605469 C 543.078125 583.820312 574.339844 595.261719 608.269531 595.261719 C 670.257812 595.261719 723.324219 557.121094 745.328125 503.035156 L 663.816406 503.035156 " fill-opacity="1" fill-rule="nonzero"/></g><path fill="#04061f" d="M 306.785156 346.3125 C 306.785156 361.726562 319.273438 374.214844 334.683594 374.214844 C 350.085938 374.214844 362.574219 361.726562 362.574219 346.3125 C 362.574219 330.90625 350.085938 318.417969 334.683594 318.417969 C 319.273438 318.417969 306.785156 330.90625 306.785156 346.3125 " fill-opacity="1" fill-rule="nonzero"/><path fill="#04061f" d="M 377.179688 535.550781 C 377.179688 550.964844 389.671875 563.453125 405.074219 563.453125 C 420.480469 563.453125 432.972656 550.964844 432.972656 535.550781 C 432.972656 520.144531 420.480469 507.65625 405.074219 507.65625 C 389.671875 507.65625 377.179688 520.144531 377.179688 535.550781 " fill-opacity="1" fill-rule="nonzero"/><path fill="#04061f" d="M 176.105469 444.375 C 176.105469 459.78125 188.597656 472.273438 204 472.273438 C 219.40625 472.273438 231.898438 459.78125 231.898438 444.375 C 231.898438 428.96875 219.40625 416.480469 204 416.480469 C 188.597656 416.480469 176.105469 428.96875 176.105469 444.375 " fill-opacity="1" fill-rule="nonzero"/><g fill="#04061f" fill-opacity="1"><g transform="translate(347.740855, 650.527835)"><g><path d="M 15.25 0 L 9.140625 -9.453125 C 8.523438 -9.460938 7.664062 -9.5 6.5625 -9.5625 L 6.5625 0 L 2.34375 0 L 2.34375 -22.890625 C 2.570312 -22.890625 3.453125 -22.925781 4.984375 -23 C 6.515625 -23.082031 7.75 -23.125 8.6875 -23.125 C 14.5 -23.125 17.40625 -20.875 17.40625 -16.375 C 17.40625 -15.019531 17.003906 -13.785156 16.203125 -12.671875 C 15.398438 -11.554688 14.390625 -10.769531 13.171875 -10.3125 L 19.9375 0 Z M 6.5625 -19.359375 L 6.5625 -13 C 7.3125 -12.9375 7.882812 -12.90625 8.28125 -12.90625 C 9.976562 -12.90625 11.21875 -13.144531 12 -13.625 C 12.789062 -14.101562 13.1875 -15.035156 13.1875 -16.421875 C 13.1875 -17.546875 12.765625 -18.332031 11.921875 -18.78125 C 11.078125 -19.226562 9.75 -19.453125 7.9375 -19.453125 C 7.5 -19.453125 7.039062 -19.421875 6.5625 -19.359375 Z M 6.5625 -19.359375 "/></g></g></g><g fill="#04061f" fill-opacity="1"><g transform="translate(367.282957, 650.527835)"><g><path d="M 15.703125 0 L 14.03125 -4.640625 L 6.1875 -4.640625 L 4.59375 0 L 0.078125 0 L 9.203125 -23.203125 L 10.984375 -23.203125 L 20.1875 0 Z M 10.09375 -16.203125 L 7.34375 -7.75 L 12.84375 -7.75 Z M 10.09375 -16.203125 "/></g></g></g><g fill="#04061f" fill-opacity="1"><g transform="translate(387.543633, 650.527835)"><g><path d="M 4.09375 -13.53125 L 2.796875 -15.265625 C 3.765625 -16.003906 4.359375 -16.550781 4.578125 -16.90625 C 4.796875 -17.257812 4.90625 -17.632812 4.90625 -18.03125 C 4.90625 -18.445312 4.648438 -18.910156 4.140625 -19.421875 C 3.628906 -19.929688 3.375 -20.476562 3.375 -21.0625 C 3.375 -22.75 4.207031 -23.59375 5.875 -23.59375 C 6.71875 -23.59375 7.367188 -23.320312 7.828125 -22.78125 C 8.296875 -22.238281 8.53125 -21.507812 8.53125 -20.59375 C 8.53125 -17.71875 7.050781 -15.363281 4.09375 -13.53125 Z M 4.09375 -13.53125 "/></g></g></g><g fill="#04061f" fill-opacity="1"><g transform="translate(399.290764, 650.527835)"><g><path d="M 15.703125 0 L 14.03125 -4.640625 L 6.1875 -4.640625 L 4.59375 0 L 0.078125 0 L 9.203125 -23.203125 L 10.984375 -23.203125 L 20.1875 0 Z M 10.09375 -16.203125 L 7.34375 -7.75 L 12.84375 -7.75 Z M 10.09375 -16.203125 "/></g></g></g><g fill="#04061f" fill-opacity="1"><g transform="translate(419.55144, 650.527835)"><g><path d="M 1.25 -1.265625 L 2.75 -4.90625 C 4.351562 -3.78125 5.929688 -3.21875 7.484375 -3.21875 C 9.867188 -3.21875 11.0625 -4.050781 11.0625 -5.71875 C 11.0625 -6.5 10.78125 -7.242188 10.21875 -7.953125 C 9.65625 -8.660156 8.492188 -9.453125 6.734375 -10.328125 C 4.984375 -11.210938 3.800781 -11.9375 3.1875 -12.5 C 2.582031 -13.070312 2.113281 -13.75 1.78125 -14.53125 C 1.457031 -15.3125 1.296875 -16.175781 1.296875 -17.125 C 1.296875 -18.894531 1.941406 -20.363281 3.234375 -21.53125 C 4.535156 -22.695312 6.203125 -23.28125 8.234375 -23.28125 C 10.878906 -23.28125 12.820312 -22.785156 14.0625 -21.796875 L 12.828125 -18.296875 C 11.398438 -19.316406 9.894531 -19.828125 8.3125 -19.828125 C 7.375 -19.828125 6.644531 -19.578125 6.125 -19.078125 C 5.613281 -18.585938 5.359375 -17.945312 5.359375 -17.15625 C 5.359375 -15.84375 6.8125 -14.476562 9.71875 -13.0625 C 11.25 -12.3125 12.351562 -11.617188 13.03125 -10.984375 C 13.707031 -10.359375 14.222656 -9.625 14.578125 -8.78125 C 14.929688 -7.945312 15.109375 -7.015625 15.109375 -5.984375 C 15.109375 -4.128906 14.375 -2.601562 12.90625 -1.40625 C 11.445312 -0.207031 9.488281 0.390625 7.03125 0.390625 C 4.894531 0.390625 2.96875 -0.160156 1.25 -1.265625 Z M 1.25 -1.265625 "/></g></g></g><g fill="#04061f" fill-opacity="1"><g transform="translate(435.90682, 650.527835)"><g><path d="M 2.421875 0 L 2.421875 -22.890625 L 6.484375 -22.890625 L 6.484375 0 Z M 2.421875 0 "/></g></g></g><g fill="#04061f" fill-opacity="1"><g transform="translate(444.810895, 650.527835)"><g><path d="M 1.25 -1.265625 L 2.75 -4.90625 C 4.351562 -3.78125 5.929688 -3.21875 7.484375 -3.21875 C 9.867188 -3.21875 11.0625 -4.050781 11.0625 -5.71875 C 11.0625 -6.5 10.78125 -7.242188 10.21875 -7.953125 C 9.65625 -8.660156 8.492188 -9.453125 6.734375 -10.328125 C 4.984375 -11.210938 3.800781 -11.9375 3.1875 -12.5 C 2.582031 -13.070312 2.113281 -13.75 1.78125 -14.53125 C 1.457031 -15.3125 1.296875 -16.175781 1.296875 -17.125 C 1.296875 -18.894531 1.941406 -20.363281 3.234375 -21.53125 C 4.535156 -22.695312 6.203125 -23.28125 8.234375 -23.28125 C 10.878906 -23.28125 12.820312 -22.785156 14.0625 -21.796875 L 12.828125 -18.296875 C 11.398438 -19.316406 9.894531 -19.828125 8.3125 -19.828125 C 7.375 -19.828125 6.644531 -19.578125 6.125 -19.078125 C 5.613281 -18.585938 5.359375 -17.945312 5.359375 -17.15625 C 5.359375 -15.84375 6.8125 -14.476562 9.71875 -13.0625 C 11.25 -12.3125 12.351562 -11.617188 13.03125 -10.984375 C 13.707031 -10.359375 14.222656 -9.625 14.578125 -8.78125 C 14.929688 -7.945312 15.109375 -7.015625 15.109375 -5.984375 C 15.109375 -4.128906 14.375 -2.601562 12.90625 -1.40625 C 11.445312 -0.207031 9.488281 0.390625 7.03125 0.390625 C 4.894531 0.390625 2.96875 -0.160156 1.25 -1.265625 Z M 1.25 -1.265625 "/></g></g></g><g fill="#04061f" fill-opacity="1"><g transform="translate(461.166276, 650.527835)"><g/></g></g><g fill="#04061f" fill-opacity="1"><g transform="translate(470.804546, 650.527835)"><g><path d="M 1.25 -1.265625 L 2.75 -4.90625 C 4.351562 -3.78125 5.929688 -3.21875 7.484375 -3.21875 C 9.867188 -3.21875 11.0625 -4.050781 11.0625 -5.71875 C 11.0625 -6.5 10.78125 -7.242188 10.21875 -7.953125 C 9.65625 -8.660156 8.492188 -9.453125 6.734375 -10.328125 C 4.984375 -11.210938 3.800781 -11.9375 3.1875 -12.5 C 2.582031 -13.070312 2.113281 -13.75 1.78125 -14.53125 C 1.457031 -15.3125 1.296875 -16.175781 1.296875 -17.125 C 1.296875 -18.894531 1.941406 -20.363281 3.234375 -21.53125 C 4.535156 -22.695312 6.203125 -23.28125 8.234375 -23.28125 C 10.878906 -23.28125 12.820312 -22.785156 14.0625 -21.796875 L 12.828125 -18.296875 C 11.398438 -19.316406 9.894531 -19.828125 8.3125 -19.828125 C 7.375 -19.828125 6.644531 -19.578125 6.125 -19.078125 C 5.613281 -18.585938 5.359375 -17.945312 5.359375 -17.15625 C 5.359375 -15.84375 6.8125 -14.476562 9.71875 -13.0625 C 11.25 -12.3125 12.351562 -11.617188 13.03125 -10.984375 C 13.707031 -10.359375 14.222656 -9.625 14.578125 -8.78125 C 14.929688 -7.945312 15.109375 -7.015625 15.109375 -5.984375 C 15.109375 -4.128906 14.375 -2.601562 12.90625 -1.40625 C 11.445312 -0.207031 9.488281 0.390625 7.03125 0.390625 C 4.894531 0.390625 2.96875 -0.160156 1.25 -1.265625 Z M 1.25 -1.265625 "/></g></g></g><g fill="#04061f" fill-opacity="1"><g transform="translate(487.159927, 650.527835)"><g><path d="M 6.40625 -8.421875 L 6.40625 0 L 2.34375 0 L 2.34375 -22.875 C 5.050781 -22.988281 6.632812 -23.046875 7.09375 -23.046875 C 10.707031 -23.046875 13.347656 -22.488281 15.015625 -21.375 C 16.691406 -20.269531 17.53125 -18.539062 17.53125 -16.1875 C 17.53125 -10.9375 14.4375 -8.3125 8.25 -8.3125 C 7.789062 -8.3125 7.175781 -8.347656 6.40625 -8.421875 Z M 6.40625 -19.359375 L 6.40625 -12.03125 C 7.09375 -11.957031 7.632812 -11.921875 8.03125 -11.921875 C 9.882812 -11.921875 11.238281 -12.226562 12.09375 -12.84375 C 12.945312 -13.46875 13.375 -14.476562 13.375 -15.875 C 13.375 -18.25 11.460938 -19.4375 7.640625 -19.4375 C 7.210938 -19.4375 6.800781 -19.410156 6.40625 -19.359375 Z M 6.40625 -19.359375 "/></g></g></g><g fill="#04061f" fill-opacity="1"><g transform="translate(505.936591, 650.527835)"><g><path d="M 15.703125 0 L 14.03125 -4.640625 L 6.1875 -4.640625 L 4.59375 0 L 0.078125 0 L 9.203125 -23.203125 L 10.984375 -23.203125 L 20.1875 0 Z M 10.09375 -16.203125 L 7.34375 -7.75 L 12.84375 -7.75 Z M 10.09375 -16.203125 "/></g></g></g></svg>